#!OML:ASF F:\VICON\USERDATA\INSTALL\rory3\rory3.ASF
:FULLY-SPECIFIED
:DEGREES
675
root -10.5667 17.7106 9.08741 -363.063 -1.5248 -360.92
lowerback 12.0947 0.872391 -3.20069
upperback 0.320834 0.789014 1.11632
thorax -6.51702 0.503071 2.84932
lowerneck -17.158 -7.76136 -13.0783
upperneck 30.453 -11.1312 11.395
head 14.8957 -4.87183 4.8966
rclavicle 9.10566e-015 -1.60953e-014
rhumerus -37.3919 -21.2206 -74.8948
rradius 31.7854
rwrist 9.89834
rhand -20.5385 11.8138
rfingers 7.12502
rthumb 5.81991 -18.0863
lclavicle 9.10566e-015 -1.60953e-014
lhumerus -32.1611 3.30343 85.1169
lradius 27.5448
lwrist -4.26271
lhand -20.4491 26.7567
lfingers 7.12502
lthumb 5.90627 56.6544
rfemur -9.70526 -3.65883 6.97207
rtibia 39.2011
rfoot -13.5473 -7.83921
rtoes 0.602503
lfemur -2.00276 -2.61892 -17.7151
ltibia 24.6822
lfoot -15.4866 -8.28542
ltoes -6.53762
676
root -10.6354 17.7154 9.10489 -363.042 -1.25861 -360.99
lowerback 11.997 0.843236 -3.15304
upperback 0.323608 0.767164 1.22327
thorax -6.45839 0.491674 2.93982
lowerneck -17.1996 -7.78176 -13.2093
upperneck 30.4371 -11.1569 11.5246
head 14.9233 -4.87978 4.96894
rclavicle -1.17213e-014 1.35422e-014
rhumerus -37.6224 -21.5884 -74.4696
rradius 31.5332
rwrist 9.38504
rhand -20.8393 11.878
rfingers 7.12502
rthumb 5.52954 -18.0299
lclavicle -1.17213e-014 1.35422e-014
lhumerus -32.1355 2.99959 85.3194
lradius 27.6023
lwrist -4.24183
lhand -20.1095 26.0569
lfingers 7.12502
lthumb 6.23409 55.9452
rfemur -9.28863 -3.35033 6.37007
rtibia 38.2353
rfoot -12.1229 -7.91766
rtoes 3.2967
lfemur -1.8687 -2.94227 -17.4234
ltibia 24.4082
lfoot -15.412 -8.2722
ltoes -6.92576
677
root -10.7041 17.7182 9.12181 -362.995 -1.05247 -360.969
lowerback 11.7944 0.83226 -3.15407
upperback 0.398004 0.761233 1.25637
thorax -6.26552 0.484904 2.97712
lowerneck -17.3309 -7.83721 -13.1822
upperneck 30.3517 -11.2346 11.5612
head 14.9284 -4.89942 4.9574
rclavicle 1.64619e-016 5.34234e-015
rhumerus -37.6991 -22.1623 -74.1176
rradius 31.248
rwrist 8.87431
rhand -20.609 12.0796
rfingers 7.12502
rthumb 5.7519 -17.8223
lclavicle 1.64619e-016 5.34234e-015
lhumerus -31.9614 2.66484 85.4242
lradius 27.636
lwrist -4.17485
lhand -20.0904 25.4574
lfingers 7.12502
lthumb 6.25255 55.3451
rfemur -8.96865 -2.99128 5.68448
rtibia 37.3074
rfoot -10.6016 -8.10291
rtoes 6.06274
lfemur -1.74637 -3.26257 -17.2393
ltibia 24.1219
lfoot -15.314 -8.17048
ltoes -7.29662
678
root -10.7763 17.7207 9.13513 -362.956 -0.906558 -361.001
lowerback 11.6998 0.861058 -3.1213
upperback 0.393086 0.809861 1.30398
thorax -6.22155 0.507878 3.00091
lowerneck -17.2443 -7.87634 -13.1462
upperneck 30.2142 -11.2973 11.5566
head 14.8534 -4.92491 4.9316
rclavicle -7.49791e-015 1.38155e-014
rhumerus -37.9976 -22.7187 -73.6853
rradius 31.0606
rwrist 8.48301
rhand -20.5447 11.5633
rfingers 7.12502
rthumb 5.81391 -18.337
lclavicle -7.49791e-015 1.38155e-014
lhumerus -31.9379 2.22302 85.5194
lradius 27.8477
lwrist -4.25507
lhand -19.9249 25.5633
lfingers 7.12502
lthumb 6.41234 55.4462
rfemur -8.72835 -2.60175 5.10479
rtibia 36.3785
rfoot -8.8431 -8.37446
rtoes 9.40112
lfemur -1.61206 -3.32736 -16.9319
ltibia 23.8196
lfoot -15.2155 -8.30247
ltoes -7.4612
679
root -10.8502 17.7263 9.14915 -362.907 -0.72242 -361.053
lowerback 11.6534 0.85353 -3.08771
upperback 0.321491 0.810275 1.37879
thorax -6.2722 0.510279 3.06112
lowerneck -17.0573 -7.88383 -13.2397
upperneck 30.1242 -11.3211 11.6428
head 14.7887 -4.94187 4.98002
rclavicle 1.40298e-014 5.31749e-015
rhumerus -38.4166 -23.2294 -73.1336
rradius 30.8826
rwrist 8.39452
rhand -20.4419 10.3516
rfingers 7.12502
rthumb 5.91317 -19.5459
lclavicle 1.40298e-014 5.31749e-015
lhumerus -32.1318 1.75809 85.6525
lradius 28.1483
lwrist -4.1841
lhand -19.9553 25.4259
lfingers 7.12502
lthumb 6.383 55.3097
rfemur -8.44457 -2.25143 4.58315
rtibia 35.4398
rfoot -6.94656 -8.86351
rtoes 12.6739
lfemur -1.50059 -3.45041 -16.5934
ltibia 23.5383
lfoot -15.0781 -8.43594
ltoes -7.62411
680
root -10.9256 17.7373 9.16336 -362.902 -0.52934 -361.269
lowerback 11.6087 0.830446 -2.89463
upperback 0.335226 0.813719 1.48733
thorax -6.23147 0.507069 3.066
lowerneck -17.1118 -7.92463 -13.2436
upperneck 30.1305 -11.3738 11.6412
head 14.8133 -4.96235 4.96839
rclavicle 9.29008e-015 -3.97569e-015
rhumerus -38.6251 -23.89 -72.6078
rradius 30.6337
rwrist 8.57845
rhand -20.0789 9.40229
rfingers 7.12502
rthumb 6.26369 -20.4851
lclavicle 9.29008e-015 -3.97569e-015
lhumerus -32.2077 1.42495 85.748
lradius 28.4433
lwrist -4.08212
lhand -19.9499 25.3992
lfingers 7.12502
lthumb 6.38813 55.2829
rfemur -8.05695 -1.77914 4.28715
rtibia 34.4809
rfoot -5.14606 -9.63225
rtoes 14.1353
lfemur -1.3662 -3.68815 -16.0831
ltibia 23.2835
lfoot -14.9579 -8.55951
ltoes -7.66153
681
root -11.0026 17.7433 9.17236 -362.967 -0.337333 -361.507
lowerback 11.6688 0.833221 -2.67251
upperback 0.37514 0.853809 1.61244
thorax -6.22453 0.521455 3.06532
lowerneck -17.1747 -7.9928 -13.3108
upperneck 30.1193 -11.4503 11.6602
head 14.8429 -4.99725 4.97065
rclavicle -1.51573e-015 3.37934e-015
rhumerus -38.7446 -24.4139 -72.1449
rradius 30.3364
rwrist 8.7608
rhand -20.0661 9.19407
rfingers 7.12502
rthumb 6.27604 -20.693
lclavicle -1.51573e-015 3.37934e-015
lhumerus -32.2068 1.13499 85.8474
lradius 28.747
lwrist -4.2923
lhand -19.82 25.7889
lfingers 7.12502
lthumb 6.51358 55.6687
rfemur -7.62023 -1.38008 4.02959
rtibia 33.5346
rfoot -3.56062 -10.1007
rtoes 15.2465
lfemur -1.18381 -3.87312 -15.5597
ltibia 23.0268
lfoot -14.9245 -8.48685
ltoes -9.34408
